<?xml version='1.0' encoding='utf-8'?>
<svg xmlns="http://www.w3.org/2000/svg" viewBox="0 0 1e3 1e3"> <g data-name="Capa 2"> <g data-name="Capa 1"> <rect x="333.33" y="458.33" width="20.83" height="20.83"/> <rect x="291.67" y="458.33" width="20.83" height="20.83"/> <rect x="312.5" y="437.5" width="20.83" height="20.83"/> <rect x="291.67" y="416.67" width="20.83" height="20.83"/> <rect x="250" y="375" width="20.83" height="20.83"/> <rect x="479.17" y="479.17" width="20.83" height="20.83"/> <rect x="479.17" y="437.5" width="20.83" height="20.83"/> <rect x="479.17" y="395.83" width="20.83" height="20.83"/> <rect x="479.17" y="354.17" width="20.83" height="20.83"/> <rect x="479.17" y="312.5" width="20.83" height="20.83"/> <rect x="479.17" y="270.83" width="20.83" height="20.83"/> <rect x="458.33" y="458.33" width="20.83" height="20.83"/> <rect x="458.33" y="416.67" width="20.83" height="20.83"/> <rect x="458.33" y="375" width="20.83" height="20.83"/> <rect x="458.33" y="333.33" width="20.83" height="20.83"/> <rect x="458.33" y="291.67" width="20.83" height="20.83"/> <rect x="458.33" y="250" width="20.83" height="20.83"/> <rect x="437.5" y="479.17" width="20.83" height="20.83"/> <rect x="437.5" y="437.5" width="20.83" height="20.83"/> <rect x="437.5" y="395.83" width="20.83" height="20.83"/> <rect x="437.5" y="354.17" width="20.83" height="20.83"/> <rect x="437.5" y="312.5" width="20.83" height="20.83"/> <rect x="437.5" y="270.83" width="20.83" height="20.83"/> <rect x="416.67" y="458.33" width="20.83" height="20.83"/> <rect x="416.67" y="416.67" width="20.83" height="20.83"/> <rect x="416.67" y="375" width="20.83" height="20.83"/> <rect x="416.67" y="333.33" width="20.83" height="20.83"/> <rect x="416.67" y="291.67" width="20.83" height="20.83"/> <rect x="416.67" y="250" width="20.83" height="20.83"/> <rect x="395.83" y="479.17" width="20.83" height="20.83"/> <rect x="395.83" y="437.5" width="20.83" height="20.83"/> <rect x="395.83" y="395.83" width="20.83" height="20.83"/> <rect x="395.83" y="354.17" width="20.83" height="20.83"/> <rect x="395.83" y="312.5" width="20.83" height="20.83"/> <rect x="395.83" y="270.83" width="20.83" height="20.83"/> <rect x="375" y="458.33" width="20.83" height="20.83"/> <rect x="375" y="416.67" width="20.83" height="20.83"/> <rect x="375" y="375" width="20.83" height="20.83"/> <rect x="375" y="333.33" width="20.83" height="20.83"/> <rect x="375" y="291.67" width="20.83" height="20.83"/> <rect x="375" y="250" width="20.83" height="20.83"/> <rect x="354.17" y="479.17" width="20.83" height="20.83"/> <rect x="354.17" y="437.5" width="20.83" height="20.83"/> <rect x="354.17" y="395.83" width="20.83" height="20.83"/> <rect x="354.17" y="354.17" width="20.83" height="20.83"/> <rect x="354.17" y="312.5" width="20.83" height="20.83"/> <rect x="354.17" y="270.83" width="20.83" height="20.83"/> <rect x="333.33" y="416.67" width="20.83" height="20.83"/> <rect x="333.33" y="375" width="20.83" height="20.83"/> <rect x="333.33" y="333.33" width="20.83" height="20.83"/> <rect x="333.33" y="291.67" width="20.83" height="20.83"/> <rect x="333.33" y="250" width="20.83" height="20.83"/> <rect x="312.5" y="479.17" width="20.83" height="20.83"/> <rect x="312.5" y="395.83" width="20.83" height="20.83"/> <rect x="312.5" y="354.17" width="20.83" height="20.83"/> <rect x="312.5" y="312.5" width="20.83" height="20.83"/> <rect x="312.5" y="270.83" width="20.83" height="20.83"/> <rect x="291.67" y="375" width="20.83" height="20.83"/> <rect x="291.67" y="333.33" width="20.83" height="20.83"/> <rect x="291.67" y="291.67" width="20.83" height="20.83"/> <rect x="291.67" y="250" width="20.83" height="20.83"/> <rect x="270.83" y="479.17" width="20.83" height="20.83"/> <rect x="270.83" y="437.5" width="20.83" height="20.83"/> <rect x="270.83" y="395.83" width="20.83" height="20.83"/> <rect x="270.83" y="354.17" width="20.83" height="20.83"/> <rect x="270.83" y="312.5" width="20.83" height="20.83"/> <rect x="270.83" y="270.83" width="20.83" height="20.83"/> <rect x="250" y="458.33" width="20.83" height="20.83"/> <rect x="250" y="416.67" width="20.83" height="20.83"/> <rect x="250" y="333.33" width="20.83" height="20.83"/> <rect x="250" y="291.67" width="20.83" height="20.83"/> <rect x="250" y="250" width="20.83" height="20.83"/> <rect x="583.33" y="708.33" width="20.83" height="20.83"/> <rect x="541.67" y="708.33" width="20.83" height="20.83"/> <rect x="562.5" y="687.5" width="20.83" height="20.83"/> <rect x="541.67" y="666.67" width="20.83" height="20.83"/> <rect x="500" y="625" width="20.83" height="20.83"/> <rect x="729.17" y="729.17" width="20.83" height="20.83"/> <rect x="729.17" y="687.5" width="20.83" height="20.83"/> <rect x="729.17" y="645.83" width="20.83" height="20.83"/> <rect x="729.17" y="604.17" width="20.83" height="20.83"/> <rect x="729.17" y="562.5" width="20.83" height="20.83"/> <rect x="729.17" y="520.83" width="20.83" height="20.83"/> <rect x="708.33" y="708.33" width="20.83" height="20.83"/> <rect x="708.33" y="666.67" width="20.83" height="20.83"/> <rect x="708.33" y="625" width="20.83" height="20.83"/> <rect x="708.33" y="583.33" width="20.83" height="20.83"/> <rect x="708.33" y="541.67" width="20.83" height="20.83"/> <rect x="708.33" y="500" width="20.83" height="20.83"/> <rect x="687.5" y="729.17" width="20.83" height="20.83"/> <rect x="687.5" y="687.5" width="20.83" height="20.83"/> <rect x="687.5" y="645.83" width="20.83" height="20.83"/> <rect x="687.5" y="604.17" width="20.83" height="20.83"/> <rect x="687.5" y="562.5" width="20.83" height="20.83"/> <rect x="687.5" y="520.83" width="20.83" height="20.83"/> <rect x="666.67" y="708.33" width="20.83" height="20.83"/> <rect x="666.67" y="666.67" width="20.83" height="20.83"/> <rect x="666.67" y="625" width="20.83" height="20.83"/> <rect x="666.67" y="583.33" width="20.83" height="20.83"/> <rect x="666.67" y="541.67" width="20.83" height="20.83"/> <rect x="666.67" y="500" width="20.83" height="20.83"/> <rect x="645.83" y="729.17" width="20.83" height="20.83"/> <rect x="645.83" y="687.5" width="20.83" height="20.83"/> <rect x="645.83" y="645.83" width="20.83" height="20.83"/> <rect x="645.83" y="604.17" width="20.83" height="20.83"/> <rect x="645.83" y="562.5" width="20.83" height="20.83"/> <rect x="645.83" y="520.83" width="20.83" height="20.83"/> <rect x="625" y="708.33" width="20.83" height="20.83"/> <rect x="625" y="666.67" width="20.83" height="20.83"/> <rect x="625" y="625" width="20.83" height="20.83"/> <rect x="625" y="583.33" width="20.83" height="20.83"/> <rect x="625" y="541.67" width="20.83" height="20.83"/> <rect x="625" y="500" width="20.83" height="20.83"/> <rect x="604.17" y="729.17" width="20.83" height="20.83"/> <rect x="604.17" y="687.5" width="20.83" height="20.83"/> <rect x="604.17" y="645.83" width="20.83" height="20.83"/> <rect x="604.17" y="604.17" width="20.83" height="20.83"/> <rect x="604.17" y="562.5" width="20.83" height="20.83"/> <rect x="604.17" y="520.83" width="20.83" height="20.83"/> <rect x="583.33" y="666.67" width="20.83" height="20.83"/> <rect x="583.33" y="625" width="20.83" height="20.83"/> <rect x="583.33" y="583.33" width="20.83" height="20.83"/> <rect x="583.33" y="541.67" width="20.83" height="20.83"/> <rect x="583.33" y="500" width="20.83" height="20.83"/> <rect x="562.5" y="729.17" width="20.83" height="20.83"/> <rect x="562.5" y="645.83" width="20.83" height="20.83"/> <rect x="562.5" y="604.17" width="20.83" height="20.83"/> <rect x="562.5" y="562.5" width="20.83" height="20.83"/> <rect x="562.5" y="520.83" width="20.83" height="20.83"/> <rect x="541.67" y="625" width="20.83" height="20.83"/> <rect x="541.67" y="583.33" width="20.83" height="20.83"/> <rect x="541.67" y="541.67" width="20.83" height="20.83"/> <rect x="541.67" y="500" width="20.83" height="20.83"/> <rect x="520.83" y="729.17" width="20.83" height="20.83"/> <rect x="520.83" y="687.5" width="20.83" height="20.83"/> <rect x="520.83" y="645.83" width="20.83" height="20.83"/> <rect x="520.83" y="604.17" width="20.83" height="20.83"/> <rect x="520.83" y="562.5" width="20.83" height="20.83"/> <rect x="520.83" y="520.83" width="20.83" height="20.83"/> <rect x="500" y="708.33" width="20.83" height="20.83"/> <rect x="500" y="666.67" width="20.83" height="20.83"/> <rect x="500" y="583.33" width="20.83" height="20.83"/> <rect x="500" y="541.67" width="20.83" height="20.83"/> <rect x="500" y="500" width="20.83" height="20.83"/> <rect x="833.33" y="708.33" width="20.83" height="20.83"/> <rect x="791.67" y="708.33" width="20.83" height="20.83"/> <rect x="812.5" y="687.5" width="20.83" height="20.83"/> <rect x="791.67" y="666.67" width="20.83" height="20.83"/> <rect x="750" y="625" width="20.83" height="20.83"/> <rect x="979.17" y="729.17" width="20.83" height="20.83"/> <rect x="979.17" y="687.5" width="20.83" height="20.83"/> <rect x="979.17" y="645.83" width="20.83" height="20.83"/> <rect x="979.17" y="604.17" width="20.83" height="20.83"/> <rect x="979.17" y="562.5" width="20.83" height="20.83"/> <rect x="979.17" y="520.83" width="20.83" height="20.83"/> <rect x="958.33" y="708.33" width="20.83" height="20.83"/> <rect x="958.33" y="666.67" width="20.83" height="20.83"/> <rect x="958.33" y="625" width="20.83" height="20.83"/> <rect x="958.33" y="583.33" width="20.83" height="20.83"/> <rect x="958.33" y="541.67" width="20.83" height="20.83"/> <rect x="958.33" y="500" width="20.83" height="20.83"/> <rect x="937.5" y="729.17" width="20.83" height="20.83"/> <rect x="937.5" y="687.5" width="20.83" height="20.83"/> <rect x="937.5" y="645.83" width="20.83" height="20.83"/> <rect x="937.5" y="604.17" width="20.83" height="20.83"/> <rect x="937.5" y="562.5" width="20.83" height="20.83"/> <rect x="937.5" y="520.83" width="20.83" height="20.83"/> <rect x="916.67" y="708.33" width="20.83" height="20.83"/> <rect x="916.67" y="666.67" width="20.83" height="20.83"/> <rect x="916.67" y="625" width="20.83" height="20.83"/> <rect x="916.67" y="583.33" width="20.83" height="20.83"/> <rect x="916.67" y="541.67" width="20.83" height="20.83"/> <rect x="916.67" y="500" width="20.83" height="20.83"/> <rect x="895.83" y="729.17" width="20.83" height="20.83"/> <rect x="895.83" y="687.5" width="20.83" height="20.83"/> <rect x="895.83" y="645.83" width="20.83" height="20.83"/> <rect x="895.83" y="604.17" width="20.83" height="20.83"/> <rect x="895.83" y="562.5" width="20.83" height="20.83"/> <rect x="895.83" y="520.83" width="20.83" height="20.83"/> <rect x="875" y="708.33" width="20.83" height="20.83"/> <rect x="875" y="666.67" width="20.83" height="20.83"/> <rect x="875" y="625" width="20.83" height="20.83"/> <rect x="875" y="583.33" width="20.83" height="20.83"/> <rect x="875" y="541.67" width="20.83" height="20.83"/> <rect x="875" y="500" width="20.83" height="20.83"/> <rect x="854.17" y="729.17" width="20.83" height="20.83"/> <rect x="854.17" y="687.5" width="20.83" height="20.83"/> <rect x="854.17" y="645.83" width="20.83" height="20.83"/> <rect x="854.17" y="604.17" width="20.83" height="20.83"/> <rect x="854.17" y="562.5" width="20.83" height="20.83"/> <rect x="854.17" y="520.83" width="20.83" height="20.83"/> <rect x="833.33" y="666.67" width="20.83" height="20.83"/> <rect x="833.33" y="625" width="20.83" height="20.83"/> <rect x="833.33" y="583.33" width="20.83" height="20.83"/> <rect x="833.33" y="541.67" width="20.83" height="20.83"/> <rect x="833.33" y="500" width="20.83" height="20.83"/> <rect x="812.5" y="729.17" width="20.83" height="20.83"/> <rect x="812.5" y="645.83" width="20.83" height="20.83"/> <rect x="812.5" y="604.17" width="20.83" height="20.83"/> <rect x="812.5" y="562.5" width="20.83" height="20.83"/> <rect x="812.5" y="520.83" width="20.83" height="20.83"/> <rect x="791.67" y="625" width="20.83" height="20.83"/> <rect x="791.67" y="583.33" width="20.83" height="20.83"/> <rect x="791.67" y="541.67" width="20.83" height="20.83"/> <rect x="791.67" y="500" width="20.83" height="20.83"/> <rect x="770.83" y="729.17" width="20.83" height="20.83"/> <rect x="770.83" y="687.5" width="20.83" height="20.83"/> <rect x="770.83" y="645.83" width="20.83" height="20.83"/> <rect x="770.83" y="604.17" width="20.83" height="20.83"/> <rect x="770.83" y="562.5" width="20.83" height="20.83"/> <rect x="770.83" y="520.83" width="20.83" height="20.83"/> <rect x="750" y="708.33" width="20.83" height="20.83"/> <rect x="750" y="666.67" width="20.83" height="20.83"/> <rect x="750" y="583.33" width="20.83" height="20.83"/> <rect x="750" y="541.67" width="20.83" height="20.83"/> <rect x="750" y="500" width="20.83" height="20.83"/> <rect x="583.33" y="958.33" width="20.83" height="20.83"/> <rect x="541.67" y="958.33" width="20.83" height="20.83"/> <rect x="562.5" y="937.5" width="20.83" height="20.83"/> <rect x="541.67" y="916.67" width="20.83" height="20.83"/> <rect x="500" y="875" width="20.83" height="20.83"/> <rect x="729.17" y="979.17" width="20.83" height="20.83"/> <rect x="729.17" y="937.5" width="20.83" height="20.83"/> <rect x="729.17" y="895.83" width="20.83" height="20.83"/> <rect x="729.17" y="854.17" width="20.83" height="20.83"/> <rect x="729.17" y="812.5" width="20.83" height="20.83"/> <rect x="729.17" y="770.83" width="20.83" height="20.83"/> <rect x="708.33" y="958.33" width="20.83" height="20.83"/> <rect x="708.33" y="916.67" width="20.83" height="20.83"/> <rect x="708.33" y="875" width="20.83" height="20.83"/> <rect x="708.33" y="833.33" width="20.83" height="20.83"/> <rect x="708.33" y="791.67" width="20.83" height="20.83"/> <rect x="708.33" y="750" width="20.83" height="20.83"/> <rect x="687.5" y="979.17" width="20.83" height="20.83"/> <rect x="687.5" y="937.5" width="20.83" height="20.83"/> <rect x="687.5" y="895.83" width="20.83" height="20.83"/> <rect x="687.5" y="854.17" width="20.83" height="20.83"/> <rect x="687.5" y="812.5" width="20.83" height="20.83"/> <rect x="687.5" y="770.83" width="20.83" height="20.83"/> <rect x="666.67" y="958.33" width="20.83" height="20.83"/> <rect x="666.67" y="916.67" width="20.83" height="20.83"/> <rect x="666.67" y="875" width="20.83" height="20.83"/> <rect x="666.67" y="833.33" width="20.83" height="20.83"/> <rect x="666.67" y="791.67" width="20.83" height="20.83"/> <rect x="666.67" y="750" width="20.83" height="20.83"/> <rect x="645.83" y="979.17" width="20.83" height="20.83"/> <rect x="645.83" y="937.5" width="20.83" height="20.83"/> <rect x="645.83" y="895.83" width="20.83" height="20.83"/> <rect x="645.83" y="854.17" width="20.83" height="20.83"/> <rect x="645.83" y="812.5" width="20.83" height="20.83"/> <rect x="645.83" y="770.83" width="20.83" height="20.83"/> <rect x="625" y="958.33" width="20.83" height="20.83"/> <rect x="625" y="916.67" width="20.83" height="20.83"/> <rect x="625" y="875" width="20.83" height="20.83"/> <rect x="625" y="833.33" width="20.83" height="20.83"/> <rect x="625" y="791.67" width="20.83" height="20.83"/> <rect x="625" y="750" width="20.83" height="20.83"/> <rect x="604.17" y="979.17" width="20.83" height="20.83"/> <rect x="604.17" y="937.5" width="20.83" height="20.83"/> <rect x="604.17" y="895.83" width="20.83" height="20.83"/> <rect x="604.17" y="854.17" width="20.83" height="20.83"/> <rect x="604.17" y="812.5" width="20.83" height="20.83"/> <rect x="604.17" y="770.83" width="20.83" height="20.83"/> <rect x="583.33" y="916.67" width="20.83" height="20.83"/> <rect x="583.33" y="875" width="20.83" height="20.83"/> <rect x="583.33" y="833.33" width="20.83" height="20.83"/> <rect x="583.33" y="791.67" width="20.83" height="20.83"/> <rect x="583.33" y="750" width="20.83" height="20.83"/> <rect x="562.5" y="979.17" width="20.83" height="20.83"/> <rect x="562.5" y="895.83" width="20.83" height="20.83"/> <rect x="562.5" y="854.17" width="20.83" height="20.83"/> <rect x="562.5" y="812.5" width="20.83" height="20.83"/> <rect x="562.5" y="770.83" width="20.83" height="20.83"/> <rect x="541.67" y="875" width="20.83" height="20.83"/> <rect x="541.67" y="833.33" width="20.83" height="20.83"/> <rect x="541.67" y="791.67" width="20.83" height="20.83"/> <rect x="541.67" y="750" width="20.83" height="20.83"/> <rect x="520.83" y="979.17" width="20.83" height="20.83"/> <rect x="520.83" y="937.5" width="20.83" height="20.83"/> <rect x="520.83" y="895.83" width="20.83" height="20.83"/> <rect x="520.83" y="854.17" width="20.83" height="20.83"/> <rect x="520.83" y="812.5" width="20.83" height="20.83"/> <rect x="520.83" y="770.83" width="20.83" height="20.83"/> <rect x="500" y="958.33" width="20.83" height="20.83"/> <rect x="500" y="916.67" width="20.83" height="20.83"/> <rect x="500" y="833.33" width="20.83" height="20.83"/> <rect x="500" y="791.67" width="20.83" height="20.83"/> <rect x="500" y="750" width="20.83" height="20.83"/> <rect x="833.33" y="958.33" width="20.83" height="20.83"/> <rect x="791.67" y="958.33" width="20.83" height="20.83"/> <rect x="812.5" y="937.5" width="20.83" height="20.83"/> <rect x="791.67" y="916.67" width="20.83" height="20.83"/> <rect x="750" y="875" width="20.83" height="20.83"/> <rect x="979.17" y="979.17" width="20.83" height="20.83"/> <rect x="979.17" y="937.5" width="20.83" height="20.83"/> <rect x="979.17" y="895.83" width="20.83" height="20.83"/> <rect x="979.17" y="854.17" width="20.83" height="20.83"/> <rect x="979.17" y="812.5" width="20.83" height="20.83"/> <rect x="979.17" y="770.83" width="20.83" height="20.83"/> <rect x="958.33" y="958.33" width="20.83" height="20.83"/> <rect x="958.33" y="916.67" width="20.83" height="20.83"/> <rect x="958.33" y="875" width="20.83" height="20.83"/> <rect x="958.33" y="833.33" width="20.83" height="20.83"/> <rect x="958.33" y="791.67" width="20.83" height="20.83"/> <rect x="958.33" y="750" width="20.83" height="20.83"/> <rect x="937.5" y="979.17" width="20.83" height="20.83"/> <rect x="937.5" y="937.5" width="20.83" height="20.83"/> <rect x="937.5" y="895.83" width="20.83" height="20.83"/> <rect x="937.5" y="854.17" width="20.83" height="20.83"/> <rect x="937.5" y="812.5" width="20.83" height="20.83"/> <rect x="937.5" y="770.83" width="20.83" height="20.83"/> <rect x="916.67" y="958.33" width="20.83" height="20.83"/> <rect x="916.67" y="916.67" width="20.83" height="20.83"/> <rect x="916.67" y="875" width="20.83" height="20.83"/> <rect x="916.67" y="833.33" width="20.83" height="20.83"/> <rect x="916.67" y="791.67" width="20.83" height="20.83"/> <rect x="916.67" y="750" width="20.83" height="20.83"/> <rect x="895.83" y="979.17" width="20.83" height="20.83"/> <rect x="895.83" y="937.5" width="20.83" height="20.83"/> <rect x="895.83" y="895.83" width="20.83" height="20.83"/> <rect x="895.83" y="854.17" width="20.83" height="20.83"/> <rect x="895.83" y="812.5" width="20.83" height="20.83"/> <rect x="895.83" y="770.83" width="20.83" height="20.83"/> <rect x="875" y="958.33" width="20.83" height="20.83"/> <rect x="875" y="916.67" width="20.83" height="20.83"/> <rect x="875" y="875" width="20.83" height="20.83"/> <rect x="875" y="833.33" width="20.83" height="20.83"/> <rect x="875" y="791.67" width="20.83" height="20.83"/> <rect x="875" y="750" width="20.83" height="20.83"/> <rect x="854.17" y="979.17" width="20.83" height="20.83"/> <rect x="854.17" y="937.5" width="20.83" height="20.83"/> <rect x="854.17" y="895.83" width="20.83" height="20.83"/> <rect x="854.17" y="854.17" width="20.83" height="20.83"/> <rect x="854.17" y="812.5" width="20.83" height="20.83"/> <rect x="854.17" y="770.83" width="20.83" height="20.83"/> <rect x="833.33" y="916.67" width="20.83" height="20.83"/> <rect x="833.33" y="875" width="20.83" height="20.83"/> <rect x="833.33" y="833.33" width="20.83" height="20.83"/> <rect x="833.33" y="791.67" width="20.83" height="20.83"/> <rect x="833.33" y="750" width="20.83" height="20.83"/> <rect x="812.5" y="979.17" width="20.83" height="20.83"/> <rect x="812.5" y="895.83" width="20.83" height="20.83"/> <rect x="812.5" y="854.17" width="20.83" height="20.83"/> <rect x="812.5" y="812.5" width="20.83" height="20.83"/> <rect x="812.5" y="770.83" width="20.83" height="20.83"/> <rect x="791.67" y="875" width="20.83" height="20.83"/> <rect x="791.67" y="833.33" width="20.83" height="20.83"/> <rect x="791.67" y="791.67" width="20.83" height="20.83"/> <rect x="791.67" y="750" width="20.83" height="20.83"/> <rect x="770.83" y="979.17" width="20.83" height="20.83"/> <rect x="770.83" y="937.5" width="20.83" height="20.83"/> <rect x="770.83" y="895.83" width="20.83" height="20.83"/> <rect x="770.83" y="854.17" width="20.83" height="20.83"/> <rect x="770.83" y="812.5" width="20.83" height="20.83"/> <rect x="770.83" y="770.83" width="20.83" height="20.83"/> <rect x="750" y="958.33" width="20.83" height="20.83"/> <rect x="750" y="916.67" width="20.83" height="20.83"/> <rect x="750" y="833.33" width="20.83" height="20.83"/> <rect x="750" y="791.67" width="20.83" height="20.83"/> <rect x="750" y="750" width="20.83" height="20.83"/> <rect x="583.33" y="208.33" width="20.83" height="20.83"/> <rect x="541.67" y="208.33" width="20.83" height="20.83"/> <rect x="562.5" y="187.5" width="20.83" height="20.83"/> <rect x="541.67" y="166.67" width="20.83" height="20.83"/> <rect x="500" y="125" width="20.83" height="20.83"/> <rect x="729.17" y="229.17" width="20.83" height="20.83"/> <rect x="729.17" y="187.5" width="20.83" height="20.83"/> <rect x="729.17" y="145.83" width="20.83" height="20.83"/> <rect x="729.17" y="104.17" width="20.83" height="20.83"/> <rect x="729.17" y="62.5" width="20.83" height="20.83"/> <rect x="729.17" y="20.83" width="20.83" height="20.83"/> <rect x="708.33" y="208.33" width="20.83" height="20.83"/> <rect x="708.33" y="166.67" width="20.83" height="20.83"/> <rect x="708.33" y="125" width="20.83" height="20.83"/> <rect x="708.33" y="83.33" width="20.83" height="20.83"/> <rect x="708.33" y="41.67" width="20.83" height="20.83"/> <rect x="708.33" width="20.83" height="20.83"/> <rect x="687.5" y="229.17" width="20.83" height="20.83"/> <rect x="687.5" y="187.5" width="20.83" height="20.83"/> <rect x="687.5" y="145.83" width="20.83" height="20.83"/> <rect x="687.5" y="104.17" width="20.83" height="20.83"/> <rect x="687.5" y="62.5" width="20.83" height="20.83"/> <rect x="687.5" y="20.83" width="20.83" height="20.83"/> <rect x="666.67" y="208.33" width="20.83" height="20.83"/> <rect x="666.67" y="166.67" width="20.83" height="20.83"/> <rect x="666.67" y="125" width="20.83" height="20.83"/> <rect x="666.67" y="83.33" width="20.83" height="20.83"/> <rect x="666.67" y="41.67" width="20.83" height="20.83"/> <rect x="666.67" width="20.83" height="20.83"/> <rect x="645.83" y="229.17" width="20.83" height="20.83"/> <rect x="645.83" y="187.5" width="20.83" height="20.83"/> <rect x="645.83" y="145.83" width="20.83" height="20.83"/> <rect x="645.83" y="104.17" width="20.83" height="20.83"/> <rect x="645.83" y="62.5" width="20.83" height="20.83"/> <rect x="645.83" y="20.83" width="20.83" height="20.83"/> <rect x="625" y="208.33" width="20.83" height="20.83"/> <rect x="625" y="166.67" width="20.83" height="20.83"/> <rect x="625" y="125" width="20.83" height="20.83"/> <rect x="625" y="83.33" width="20.83" height="20.83"/> <rect x="625" y="41.67" width="20.83" height="20.83"/> <rect x="625" width="20.83" height="20.83"/> <rect x="604.17" y="229.17" width="20.83" height="20.83"/> <rect x="604.17" y="187.5" width="20.83" height="20.83"/> <rect x="604.17" y="145.83" width="20.83" height="20.83"/> <rect x="604.17" y="104.17" width="20.83" height="20.83"/> <rect x="604.17" y="62.5" width="20.83" height="20.83"/> <rect x="604.17" y="20.83" width="20.83" height="20.83"/> <rect x="583.33" y="166.67" width="20.83" height="20.83"/> <rect x="583.33" y="125" width="20.83" height="20.83"/> <rect x="583.33" y="83.33" width="20.83" height="20.83"/> <rect x="583.33" y="41.67" width="20.83" height="20.83"/> <rect x="583.33" width="20.83" height="20.83"/> <rect x="562.5" y="229.17" width="20.83" height="20.83"/> <rect x="562.5" y="145.83" width="20.83" height="20.83"/> <rect x="562.5" y="104.17" width="20.83" height="20.83"/> <rect x="562.5" y="62.5" width="20.83" height="20.83"/> <rect x="562.5" y="20.83" width="20.83" height="20.83"/> <rect x="541.67" y="125" width="20.83" height="20.83"/> <rect x="541.67" y="83.33" width="20.83" height="20.83"/> <rect x="541.67" y="41.67" width="20.83" height="20.83"/> <rect x="541.67" width="20.83" height="20.83"/> <rect x="520.83" y="229.17" width="20.83" height="20.83"/> <rect x="520.83" y="187.5" width="20.83" height="20.83"/> <rect x="520.83" y="145.83" width="20.83" height="20.83"/> <rect x="520.83" y="104.17" width="20.83" height="20.83"/> <rect x="520.83" y="62.5" width="20.83" height="20.83"/> <rect x="520.83" y="20.83" width="20.83" height="20.83"/> <rect x="500" y="208.33" width="20.83" height="20.83"/> <rect x="500" y="166.67" width="20.83" height="20.83"/> <rect x="500" y="83.33" width="20.83" height="20.83"/> <rect x="500" y="41.67" width="20.83" height="20.83"/> <rect x="500" width="20.83" height="20.83"/> <rect x="833.33" y="208.33" width="20.83" height="20.83"/> <rect x="791.67" y="208.33" width="20.83" height="20.83"/> <rect x="812.5" y="187.5" width="20.83" height="20.83"/> <rect x="791.67" y="166.67" width="20.83" height="20.83"/> <rect x="750" y="125" width="20.83" height="20.83"/> <rect x="979.17" y="229.17" width="20.83" height="20.83"/> <rect x="979.17" y="187.5" width="20.83" height="20.83"/> <rect x="979.17" y="145.83" width="20.83" height="20.83"/> <rect x="979.17" y="104.17" width="20.83" height="20.83"/> <rect x="979.17" y="62.5" width="20.83" height="20.83"/> <rect x="979.17" y="20.83" width="20.83" height="20.83"/> <rect x="958.33" y="208.33" width="20.83" height="20.83"/> <rect x="958.33" y="166.67" width="20.83" height="20.83"/> <rect x="958.33" y="125" width="20.83" height="20.83"/> <rect x="958.33" y="83.33" width="20.83" height="20.83"/> <rect x="958.33" y="41.67" width="20.83" height="20.83"/> <rect x="958.33" width="20.83" height="20.83"/> <rect x="937.5" y="229.17" width="20.83" height="20.83"/> <rect x="937.5" y="187.5" width="20.83" height="20.83"/> <rect x="937.5" y="145.83" width="20.83" height="20.83"/> <rect x="937.5" y="104.17" width="20.83" height="20.83"/> <rect x="937.5" y="62.5" width="20.83" height="20.83"/> <rect x="937.5" y="20.83" width="20.83" height="20.83"/> <rect x="916.67" y="208.33" width="20.83" height="20.83"/> <rect x="916.67" y="166.67" width="20.83" height="20.83"/> <rect x="916.67" y="125" width="20.83" height="20.83"/> <rect x="916.67" y="83.33" width="20.83" height="20.83"/> <rect x="916.67" y="41.67" width="20.83" height="20.83"/> <rect x="916.67" width="20.83" height="20.83"/> <rect x="895.83" y="229.17" width="20.83" height="20.83"/> <rect x="895.83" y="187.5" width="20.83" height="20.83"/> <rect x="895.83" y="145.83" width="20.83" height="20.83"/> <rect x="895.83" y="104.17" width="20.83" height="20.83"/> <rect x="895.83" y="62.5" width="20.83" height="20.83"/> <rect x="895.83" y="20.83" width="20.83" height="20.83"/> <rect x="875" y="208.33" width="20.83" height="20.83"/> <rect x="875" y="166.67" width="20.83" height="20.83"/> <rect x="875" y="125" width="20.83" height="20.83"/> <rect x="875" y="83.33" width="20.83" height="20.83"/> <rect x="875" y="41.67" width="20.83" height="20.83"/> <rect x="875" width="20.83" height="20.83"/> <rect x="854.17" y="229.17" width="20.83" height="20.83"/> <rect x="854.17" y="187.5" width="20.83" height="20.83"/> <rect x="854.17" y="145.83" width="20.83" height="20.83"/> <rect x="854.17" y="104.17" width="20.83" height="20.83"/> <rect x="854.17" y="62.5" width="20.83" height="20.83"/> <rect x="854.17" y="20.83" width="20.83" height="20.83"/> <rect x="833.33" y="166.67" width="20.83" height="20.83"/> <rect x="833.33" y="125" width="20.83" height="20.83"/> <rect x="833.33" y="83.33" width="20.83" height="20.83"/> <rect x="833.33" y="41.67" width="20.83" height="20.83"/> <rect x="833.33" width="20.83" height="20.83"/> <rect x="812.5" y="229.17" width="20.83" height="20.83"/> <rect x="812.5" y="145.83" width="20.83" height="20.83"/> <rect x="812.5" y="104.17" width="20.83" height="20.83"/> <rect x="812.5" y="62.5" width="20.83" height="20.83"/> <rect x="812.5" y="20.83" width="20.83" height="20.83"/> <rect x="791.67" y="125" width="20.83" height="20.83"/> <rect x="791.67" y="83.33" width="20.83" height="20.83"/> <rect x="791.67" y="41.67" width="20.83" height="20.83"/> <rect x="791.67" width="20.83" height="20.83"/> <rect x="770.83" y="229.17" width="20.83" height="20.83"/> <rect x="770.83" y="187.5" width="20.83" height="20.83"/> <rect x="770.83" y="145.83" width="20.83" height="20.83"/> <rect x="770.83" y="104.17" width="20.83" height="20.83"/> <rect x="770.83" y="62.5" width="20.83" height="20.83"/> <rect x="770.83" y="20.83" width="20.83" height="20.83"/> <rect x="750" y="208.33" width="20.83" height="20.83"/> <rect x="750" y="166.67" width="20.83" height="20.83"/> <rect x="750" y="83.33" width="20.83" height="20.83"/> <rect x="750" y="41.67" width="20.83" height="20.83"/> <rect x="750" width="20.83" height="20.83"/> <rect x="583.33" y="458.33" width="20.83" height="20.83"/> <rect x="541.67" y="458.33" width="20.83" height="20.83"/> <rect x="562.5" y="437.5" width="20.83" height="20.83"/> <rect x="541.67" y="416.67" width="20.83" height="20.83"/> <rect x="500" y="375" width="20.83" height="20.83"/> <rect x="729.17" y="479.17" width="20.83" height="20.83"/> <rect x="729.17" y="437.5" width="20.83" height="20.83"/> <rect x="729.17" y="395.83" width="20.83" height="20.83"/> <rect x="729.17" y="354.17" width="20.83" height="20.83"/> <rect x="729.17" y="312.5" width="20.83" height="20.83"/> <rect x="729.17" y="270.83" width="20.83" height="20.83"/> <rect x="708.33" y="458.33" width="20.83" height="20.83"/> <rect x="708.33" y="416.67" width="20.83" height="20.83"/> <rect x="708.33" y="375" width="20.83" height="20.83"/> <rect x="708.33" y="333.33" width="20.83" height="20.83"/> <rect x="708.33" y="291.67" width="20.83" height="20.83"/> <rect x="708.33" y="250" width="20.83" height="20.83"/> <rect x="687.5" y="479.17" width="20.83" height="20.83"/> <rect x="687.5" y="437.5" width="20.83" height="20.83"/> <rect x="687.5" y="395.83" width="20.83" height="20.83"/> <rect x="687.5" y="354.17" width="20.83" height="20.83"/> <rect x="687.5" y="312.5" width="20.83" height="20.83"/> <rect x="687.5" y="270.83" width="20.83" height="20.83"/> <rect x="666.67" y="458.33" width="20.83" height="20.83"/> <rect x="666.67" y="416.67" width="20.83" height="20.83"/> <rect x="666.67" y="375" width="20.83" height="20.83"/> <rect x="666.67" y="333.33" width="20.83" height="20.83"/> <rect x="666.67" y="291.67" width="20.83" height="20.83"/> <rect x="666.67" y="250" width="20.83" height="20.83"/> <rect x="645.83" y="479.17" width="20.83" height="20.83"/> <rect x="645.83" y="437.5" width="20.83" height="20.83"/> <rect x="645.83" y="395.83" width="20.83" height="20.83"/> <rect x="645.83" y="354.17" width="20.83" height="20.83"/> <rect x="645.83" y="312.5" width="20.83" height="20.83"/> <rect x="645.83" y="270.83" width="20.83" height="20.83"/> <rect x="625" y="458.33" width="20.83" height="20.83"/> <rect x="625" y="416.67" width="20.83" height="20.83"/> <rect x="625" y="375" width="20.83" height="20.83"/> <rect x="625" y="333.33" width="20.83" height="20.83"/> <rect x="625" y="291.67" width="20.83" height="20.83"/> <rect x="625" y="250" width="20.83" height="20.83"/> <rect x="604.17" y="479.17" width="20.83" height="20.83"/> <rect x="604.17" y="437.5" width="20.83" height="20.83"/> <rect x="604.17" y="395.83" width="20.83" height="20.83"/> <rect x="604.17" y="354.17" width="20.83" height="20.83"/> <rect x="604.17" y="312.5" width="20.83" height="20.83"/> <rect x="604.17" y="270.83" width="20.83" height="20.83"/> <rect x="583.33" y="416.67" width="20.83" height="20.83"/> <rect x="583.33" y="375" width="20.83" height="20.83"/> <rect x="583.33" y="333.33" width="20.83" height="20.83"/> <rect x="583.33" y="291.67" width="20.83" height="20.83"/> <rect x="583.33" y="250" width="20.83" height="20.83"/> <rect x="562.5" y="479.17" width="20.83" height="20.83"/> <rect x="562.5" y="395.83" width="20.83" height="20.83"/> <rect x="562.5" y="354.17" width="20.83" height="20.83"/> <rect x="562.5" y="312.5" width="20.83" height="20.83"/> <rect x="562.5" y="270.83" width="20.83" height="20.83"/> <rect x="541.67" y="375" width="20.83" height="20.83"/> <rect x="541.67" y="333.33" width="20.83" height="20.83"/> <rect x="541.67" y="291.67" width="20.83" height="20.83"/> <rect x="541.67" y="250" width="20.83" height="20.83"/> <rect x="520.83" y="479.17" width="20.83" height="20.83"/> <rect x="520.83" y="437.5" width="20.83" height="20.83"/> <rect x="520.83" y="395.83" width="20.83" height="20.83"/> <rect x="520.83" y="354.17" width="20.83" height="20.83"/> <rect x="520.83" y="312.5" width="20.83" height="20.83"/> <rect x="520.83" y="270.83" width="20.83" height="20.83"/> <rect x="500" y="458.33" width="20.83" height="20.83"/> <rect x="500" y="416.67" width="20.83" height="20.83"/> <rect x="500" y="333.33" width="20.83" height="20.83"/> <rect x="500" y="291.67" width="20.83" height="20.83"/> <rect x="500" y="250" width="20.83" height="20.83"/> <rect x="833.33" y="458.33" width="20.83" height="20.83"/> <rect x="791.67" y="458.33" width="20.83" height="20.83"/> <rect x="812.5" y="437.5" width="20.83" height="20.83"/> <rect x="791.67" y="416.67" width="20.83" height="20.83"/> <rect x="750" y="375" width="20.83" height="20.83"/> <rect x="979.17" y="479.17" width="20.83" height="20.83"/> <rect x="979.17" y="437.5" width="20.83" height="20.83"/> <rect x="979.17" y="395.83" width="20.83" height="20.83"/> <rect x="979.17" y="354.17" width="20.83" height="20.83"/> <rect x="979.17" y="312.5" width="20.83" height="20.83"/> <rect x="979.17" y="270.83" width="20.83" height="20.83"/> <rect x="958.33" y="458.33" width="20.83" height="20.83"/> <rect x="958.33" y="416.67" width="20.83" height="20.83"/> <rect x="958.33" y="375" width="20.83" height="20.83"/> <rect x="958.33" y="333.33" width="20.83" height="20.83"/> <rect x="958.33" y="291.67" width="20.83" height="20.83"/> <rect x="958.33" y="250" width="20.83" height="20.83"/> <rect x="937.5" y="479.17" width="20.83" height="20.83"/> <rect x="937.5" y="437.5" width="20.83" height="20.83"/> <rect x="937.5" y="395.83" width="20.83" height="20.83"/> <rect x="937.5" y="354.17" width="20.83" height="20.83"/> <rect x="937.5" y="312.5" width="20.83" height="20.83"/> <rect x="937.5" y="270.83" width="20.83" height="20.83"/> <rect x="916.67" y="458.33" width="20.83" height="20.83"/> <rect x="916.67" y="416.67" width="20.83" height="20.83"/> <rect x="916.67" y="375" width="20.83" height="20.83"/> <rect x="916.67" y="333.33" width="20.83" height="20.83"/> <rect x="916.67" y="291.67" width="20.83" height="20.83"/> <rect x="916.67" y="250" width="20.83" height="20.83"/> <rect x="895.83" y="479.17" width="20.83" height="20.83"/> <rect x="895.83" y="437.5" width="20.83" height="20.83"/> <rect x="895.83" y="395.83" width="20.83" height="20.83"/> <rect x="895.83" y="354.17" width="20.83" height="20.83"/> <rect x="895.83" y="312.5" width="20.83" height="20.83"/> <rect x="895.83" y="270.83" width="20.83" height="20.83"/> <rect x="875" y="458.33" width="20.83" height="20.83"/> <rect x="875" y="416.67" width="20.83" height="20.83"/> <rect x="875" y="375" width="20.83" height="20.83"/> <rect x="875" y="333.33" width="20.83" height="20.83"/> <rect x="875" y="291.67" width="20.83" height="20.83"/> <rect x="875" y="250" width="20.83" height="20.83"/> <rect x="854.17" y="479.17" width="20.83" height="20.83"/> <rect x="854.17" y="437.5" width="20.83" height="20.83"/> <rect x="854.17" y="395.83" width="20.83" height="20.83"/> <rect x="854.17" y="354.17" width="20.83" height="20.83"/> <rect x="854.17" y="312.5" width="20.83" height="20.83"/> <rect x="854.17" y="270.83" width="20.83" height="20.83"/> <rect x="833.33" y="416.67" width="20.83" height="20.83"/> <rect x="833.33" y="375" width="20.83" height="20.83"/> <rect x="833.33" y="333.33" width="20.83" height="20.83"/> <rect x="833.33" y="291.67" width="20.83" height="20.83"/> <rect x="833.33" y="250" width="20.83" height="20.83"/> <rect x="812.5" y="479.17" width="20.83" height="20.83"/> <rect x="812.5" y="395.83" width="20.83" height="20.83"/> <rect x="812.5" y="354.17" width="20.83" height="20.83"/> <rect x="812.5" y="312.5" width="20.83" height="20.83"/> <rect x="812.5" y="270.83" width="20.83" height="20.83"/> <rect x="791.67" y="375" width="20.83" height="20.83"/> <rect x="791.67" y="333.33" width="20.83" height="20.83"/> <rect x="791.67" y="291.67" width="20.83" height="20.83"/> <rect x="791.67" y="250" width="20.83" height="20.83"/> <rect x="770.83" y="479.17" width="20.83" height="20.83"/> <rect x="770.83" y="437.5" width="20.83" height="20.83"/> <rect x="770.83" y="395.83" width="20.83" height="20.83"/> <rect x="770.83" y="354.17" width="20.83" height="20.83"/> <rect x="770.83" y="312.5" width="20.83" height="20.83"/> <rect x="770.83" y="270.83" width="20.83" height="20.83"/> <rect x="750" y="458.33" width="20.83" height="20.83"/> <rect x="750" y="416.67" width="20.83" height="20.83"/> <rect x="750" y="333.33" width="20.83" height="20.83"/> <rect x="750" y="291.67" width="20.83" height="20.83"/> <rect x="750" y="250" width="20.83" height="20.83"/> <rect x="83.33" y="708.33" width="20.83" height="20.83"/> <rect x="41.67" y="708.33" width="20.83" height="20.83"/> <rect x="62.5" y="687.5" width="20.83" height="20.83"/> <rect x="41.67" y="666.67" width="20.83" height="20.83"/> <rect y="625" width="20.83" height="20.83"/> <rect x="229.17" y="729.17" width="20.83" height="20.83"/> <rect x="229.17" y="687.5" width="20.83" height="20.83"/> <rect x="229.17" y="645.83" width="20.83" height="20.83"/> <rect x="229.17" y="604.17" width="20.83" height="20.83"/> <rect x="229.17" y="562.5" width="20.83" height="20.83"/> <rect x="229.17" y="520.83" width="20.83" height="20.83"/> <rect x="208.33" y="708.33" width="20.83" height="20.83"/> <rect x="208.33" y="666.67" width="20.83" height="20.83"/> <rect x="208.33" y="625" width="20.83" height="20.83"/> <rect x="208.33" y="583.33" width="20.83" height="20.83"/> <rect x="208.33" y="541.67" width="20.83" height="20.83"/> <rect x="208.33" y="500" width="20.83" height="20.83"/> <rect x="187.5" y="729.17" width="20.83" height="20.83"/> <rect x="187.5" y="687.5" width="20.83" height="20.83"/> <rect x="187.5" y="645.83" width="20.83" height="20.83"/> <rect x="187.5" y="604.17" width="20.83" height="20.83"/> <rect x="187.5" y="562.5" width="20.83" height="20.83"/> <rect x="187.5" y="520.83" width="20.83" height="20.83"/> <rect x="166.67" y="708.33" width="20.83" height="20.83"/> <rect x="166.67" y="666.67" width="20.83" height="20.83"/> <rect x="166.67" y="625" width="20.83" height="20.83"/> <rect x="166.67" y="583.33" width="20.83" height="20.83"/> <rect x="166.67" y="541.67" width="20.83" height="20.83"/> <rect x="166.67" y="500" width="20.83" height="20.83"/> <rect x="145.83" y="729.17" width="20.83" height="20.83"/> <rect x="145.83" y="687.5" width="20.83" height="20.83"/> <rect x="145.83" y="645.83" width="20.83" height="20.83"/> <rect x="145.83" y="604.17" width="20.83" height="20.83"/> <rect x="145.83" y="562.5" width="20.83" height="20.83"/> <rect x="145.83" y="520.83" width="20.83" height="20.83"/> <rect x="125" y="708.33" width="20.83" height="20.83"/> <rect x="125" y="666.67" width="20.83" height="20.83"/> <rect x="125" y="625" width="20.83" height="20.83"/> <rect x="125" y="583.33" width="20.83" height="20.83"/> <rect x="125" y="541.67" width="20.83" height="20.83"/> <rect x="125" y="500" width="20.83" height="20.83"/> <rect x="104.17" y="729.17" width="20.83" height="20.83"/> <rect x="104.17" y="687.5" width="20.83" height="20.83"/> <rect x="104.17" y="645.83" width="20.83" height="20.83"/> <rect x="104.17" y="604.17" width="20.83" height="20.83"/> <rect x="104.17" y="562.5" width="20.83" height="20.83"/> <rect x="104.17" y="520.83" width="20.83" height="20.83"/> <rect x="83.33" y="666.67" width="20.83" height="20.83"/> <rect x="83.33" y="625" width="20.83" height="20.83"/> <rect x="83.33" y="583.33" width="20.83" height="20.83"/> <rect x="83.33" y="541.67" width="20.83" height="20.83"/> <rect x="83.33" y="500" width="20.83" height="20.83"/> <rect x="62.5" y="729.17" width="20.83" height="20.83"/> <rect x="62.5" y="645.83" width="20.83" height="20.83"/> <rect x="62.5" y="604.17" width="20.83" height="20.83"/> <rect x="62.5" y="562.5" width="20.83" height="20.83"/> <rect x="62.5" y="520.83" width="20.83" height="20.83"/> <rect x="41.67" y="625" width="20.83" height="20.83"/> <rect x="41.67" y="583.33" width="20.83" height="20.83"/> <rect x="41.67" y="541.67" width="20.83" height="20.83"/> <rect x="41.67" y="500" width="20.83" height="20.83"/> <rect x="20.83" y="729.17" width="20.83" height="20.83"/> <rect x="20.83" y="687.5" width="20.83" height="20.83"/> <rect x="20.83" y="645.83" width="20.83" height="20.83"/> <rect x="20.83" y="604.17" width="20.83" height="20.83"/> <rect x="20.83" y="562.5" width="20.83" height="20.83"/> <rect x="20.83" y="520.83" width="20.83" height="20.83"/> <rect y="708.33" width="20.83" height="20.83"/> <rect y="666.67" width="20.83" height="20.83"/> <rect y="583.33" width="20.83" height="20.83"/> <rect y="541.67" width="20.83" height="20.83"/> <rect y="500" width="20.83" height="20.83"/> <rect x="333.33" y="708.33" width="20.83" height="20.83"/> <rect x="291.67" y="708.33" width="20.83" height="20.83"/> <rect x="312.5" y="687.5" width="20.83" height="20.83"/> <rect x="291.67" y="666.67" width="20.83" height="20.83"/> <rect x="250" y="625" width="20.83" height="20.83"/> <rect x="479.17" y="729.17" width="20.83" height="20.83"/> <rect x="479.17" y="687.5" width="20.83" height="20.83"/> <rect x="479.17" y="645.83" width="20.83" height="20.83"/> <rect x="479.17" y="604.17" width="20.83" height="20.83"/> <rect x="479.17" y="562.5" width="20.83" height="20.83"/> <rect x="479.17" y="520.83" width="20.83" height="20.83"/> <rect x="458.33" y="708.33" width="20.83" height="20.83"/> <rect x="458.33" y="666.67" width="20.83" height="20.83"/> <rect x="458.33" y="625" width="20.83" height="20.83"/> <rect x="458.33" y="583.33" width="20.83" height="20.83"/> <rect x="458.33" y="541.67" width="20.83" height="20.83"/> <rect x="458.33" y="500" width="20.83" height="20.83"/> <rect x="437.5" y="729.17" width="20.83" height="20.83"/> <rect x="437.5" y="687.5" width="20.83" height="20.83"/> <rect x="437.5" y="645.83" width="20.83" height="20.83"/> <rect x="437.5" y="604.17" width="20.83" height="20.83"/> <rect x="437.5" y="562.5" width="20.83" height="20.83"/> <rect x="437.5" y="520.83" width="20.83" height="20.83"/> <rect x="416.67" y="708.33" width="20.83" height="20.83"/> <rect x="416.67" y="666.67" width="20.83" height="20.83"/> <rect x="416.67" y="625" width="20.83" height="20.83"/> <rect x="416.67" y="583.33" width="20.83" height="20.83"/> <rect x="416.67" y="541.67" width="20.83" height="20.83"/> <rect x="416.67" y="500" width="20.83" height="20.83"/> <rect x="395.83" y="729.17" width="20.83" height="20.83"/> <rect x="395.83" y="687.5" width="20.83" height="20.83"/> <rect x="395.83" y="645.83" width="20.83" height="20.83"/> <rect x="395.83" y="604.17" width="20.83" height="20.83"/> <rect x="395.83" y="562.5" width="20.83" height="20.83"/> <rect x="395.83" y="520.83" width="20.83" height="20.83"/> <rect x="375" y="708.33" width="20.83" height="20.83"/> <rect x="375" y="666.67" width="20.83" height="20.83"/> <rect x="375" y="625" width="20.83" height="20.83"/> <rect x="375" y="583.33" width="20.83" height="20.83"/> <rect x="375" y="541.67" width="20.83" height="20.83"/> <rect x="375" y="500" width="20.83" height="20.83"/> <rect x="354.17" y="729.17" width="20.83" height="20.83"/> <rect x="354.17" y="687.5" width="20.83" height="20.83"/> <rect x="354.17" y="645.83" width="20.83" height="20.83"/> <rect x="354.17" y="604.17" width="20.83" height="20.83"/> <rect x="354.17" y="562.5" width="20.83" height="20.83"/> <rect x="354.17" y="520.83" width="20.83" height="20.83"/> <rect x="333.33" y="666.67" width="20.83" height="20.83"/> <rect x="333.33" y="625" width="20.83" height="20.83"/> <rect x="333.33" y="583.33" width="20.83" height="20.83"/> <rect x="333.33" y="541.67" width="20.83" height="20.83"/> <rect x="333.33" y="500" width="20.83" height="20.83"/> <rect x="312.5" y="729.17" width="20.83" height="20.83"/> <rect x="312.5" y="645.83" width="20.83" height="20.83"/> <rect x="312.5" y="604.17" width="20.83" height="20.83"/> <rect x="312.5" y="562.5" width="20.83" height="20.83"/> <rect x="312.5" y="520.83" width="20.83" height="20.83"/> <rect x="291.67" y="625" width="20.83" height="20.83"/> <rect x="291.67" y="583.33" width="20.83" height="20.83"/> <rect x="291.67" y="541.67" width="20.83" height="20.83"/> <rect x="291.67" y="500" width="20.83" height="20.83"/> <rect x="270.83" y="729.17" width="20.83" height="20.83"/> <rect x="270.83" y="687.5" width="20.83" height="20.83"/> <rect x="270.83" y="645.83" width="20.83" height="20.83"/> <rect x="270.83" y="604.17" width="20.83" height="20.83"/> <rect x="270.83" y="562.5" width="20.83" height="20.83"/> <rect x="270.83" y="520.83" width="20.83" height="20.83"/> <rect x="250" y="708.33" width="20.83" height="20.83"/> <rect x="250" y="666.67" width="20.83" height="20.83"/> <rect x="250" y="583.33" width="20.83" height="20.83"/> <rect x="250" y="541.67" width="20.83" height="20.83"/> <rect x="250" y="500" width="20.83" height="20.83"/> <rect x="83.33" y="958.33" width="20.83" height="20.83"/> <rect x="41.67" y="958.33" width="20.83" height="20.83"/> <rect x="62.5" y="937.5" width="20.83" height="20.83"/> <rect x="41.67" y="916.67" width="20.83" height="20.83"/> <rect y="875" width="20.83" height="20.83"/> <rect x="229.17" y="979.17" width="20.83" height="20.83"/> <rect x="229.17" y="937.5" width="20.83" height="20.83"/> <rect x="229.17" y="895.83" width="20.83" height="20.83"/> <rect x="229.17" y="854.17" width="20.83" height="20.83"/> <rect x="229.17" y="812.5" width="20.83" height="20.83"/> <rect x="229.17" y="770.83" width="20.83" height="20.83"/> <rect x="208.33" y="958.33" width="20.83" height="20.83"/> <rect x="208.33" y="916.67" width="20.83" height="20.83"/> <rect x="208.33" y="875" width="20.83" height="20.83"/> <rect x="208.33" y="833.33" width="20.83" height="20.83"/> <rect x="208.33" y="791.67" width="20.83" height="20.83"/> <rect x="208.33" y="750" width="20.83" height="20.83"/> <rect x="187.5" y="979.17" width="20.83" height="20.83"/> <rect x="187.5" y="937.5" width="20.83" height="20.83"/> <rect x="187.5" y="895.83" width="20.83" height="20.83"/> <rect x="187.5" y="854.17" width="20.83" height="20.83"/> <rect x="187.5" y="812.5" width="20.83" height="20.83"/> <rect x="187.5" y="770.83" width="20.83" height="20.83"/> <rect x="166.67" y="958.33" width="20.83" height="20.83"/> <rect x="166.67" y="916.67" width="20.83" height="20.83"/> <rect x="166.67" y="875" width="20.83" height="20.83"/> <rect x="166.67" y="833.33" width="20.83" height="20.83"/> <rect x="166.67" y="791.67" width="20.83" height="20.83"/> <rect x="166.67" y="750" width="20.83" height="20.83"/> <rect x="145.83" y="979.17" width="20.83" height="20.83"/> <rect x="145.83" y="937.5" width="20.83" height="20.83"/> <rect x="145.83" y="895.83" width="20.83" height="20.83"/> <rect x="145.83" y="854.17" width="20.83" height="20.83"/> <rect x="145.83" y="812.5" width="20.83" height="20.83"/> <rect x="145.83" y="770.83" width="20.83" height="20.83"/> <rect x="125" y="958.33" width="20.83" height="20.83"/> <rect x="125" y="916.67" width="20.83" height="20.83"/> <rect x="125" y="875" width="20.83" height="20.83"/> <rect x="125" y="833.33" width="20.83" height="20.83"/> <rect x="125" y="791.67" width="20.83" height="20.83"/> <rect x="125" y="750" width="20.83" height="20.83"/> <rect x="104.17" y="979.17" width="20.83" height="20.83"/> <rect x="104.17" y="937.5" width="20.83" height="20.83"/> <rect x="104.17" y="895.83" width="20.83" height="20.83"/> <rect x="104.17" y="854.17" width="20.83" height="20.83"/> <rect x="104.17" y="812.5" width="20.83" height="20.83"/> <rect x="104.17" y="770.83" width="20.83" height="20.83"/> <rect x="83.33" y="916.67" width="20.83" height="20.83"/> <rect x="83.33" y="875" width="20.83" height="20.83"/> <rect x="83.33" y="833.33" width="20.83" height="20.83"/> <rect x="83.33" y="791.67" width="20.83" height="20.83"/> <rect x="83.33" y="750" width="20.83" height="20.83"/> <rect x="62.5" y="979.17" width="20.83" height="20.83"/> <rect x="62.5" y="895.83" width="20.83" height="20.83"/> <rect x="62.5" y="854.17" width="20.83" height="20.83"/> <rect x="62.5" y="812.5" width="20.83" height="20.83"/> <rect x="62.5" y="770.83" width="20.83" height="20.83"/> <rect x="41.67" y="875" width="20.83" height="20.83"/> <rect x="41.67" y="833.33" width="20.83" height="20.83"/> <rect x="41.67" y="791.67" width="20.83" height="20.83"/> <rect x="41.67" y="750" width="20.83" height="20.83"/> <rect x="20.83" y="979.17" width="20.83" height="20.83"/> <rect x="20.83" y="937.5" width="20.83" height="20.83"/> <rect x="20.83" y="895.83" width="20.83" height="20.83"/> <rect x="20.83" y="854.17" width="20.83" height="20.83"/> <rect x="20.83" y="812.5" width="20.83" height="20.83"/> <rect x="20.83" y="770.83" width="20.83" height="20.83"/> <rect y="958.33" width="20.83" height="20.83"/> <rect y="916.67" width="20.83" height="20.83"/> <rect y="833.33" width="20.83" height="20.83"/> <rect y="791.67" width="20.83" height="20.83"/> <rect y="750" width="20.83" height="20.83"/> <rect x="333.33" y="958.33" width="20.83" height="20.83"/> <rect x="291.67" y="958.33" width="20.83" height="20.83"/> <rect x="312.5" y="937.5" width="20.83" height="20.83"/> <rect x="291.67" y="916.67" width="20.83" height="20.83"/> <rect x="250" y="875" width="20.83" height="20.83"/> <rect x="479.17" y="979.17" width="20.83" height="20.83"/> <rect x="479.17" y="937.5" width="20.83" height="20.83"/> <rect x="479.17" y="895.83" width="20.83" height="20.83"/> <rect x="479.17" y="854.17" width="20.83" height="20.83"/> <rect x="479.17" y="812.5" width="20.83" height="20.83"/> <rect x="479.17" y="770.83" width="20.83" height="20.83"/> <rect x="458.33" y="958.33" width="20.83" height="20.83"/> <rect x="458.33" y="916.67" width="20.83" height="20.83"/> <rect x="458.33" y="875" width="20.83" height="20.83"/> <rect x="458.33" y="833.33" width="20.83" height="20.83"/> <rect x="458.33" y="791.67" width="20.83" height="20.83"/> <rect x="458.33" y="750" width="20.83" height="20.83"/> <rect x="437.5" y="979.17" width="20.83" height="20.83"/> <rect x="437.5" y="937.5" width="20.83" height="20.83"/> <rect x="437.5" y="895.83" width="20.83" height="20.83"/> <rect x="437.5" y="854.17" width="20.83" height="20.83"/> <rect x="437.5" y="812.5" width="20.83" height="20.83"/> <rect x="437.5" y="770.83" width="20.83" height="20.83"/> <rect x="416.67" y="958.33" width="20.83" height="20.83"/> <rect x="416.67" y="916.67" width="20.83" height="20.83"/> <rect x="416.67" y="875" width="20.83" height="20.83"/> <rect x="416.67" y="833.33" width="20.83" height="20.83"/> <rect x="416.67" y="791.67" width="20.83" height="20.83"/> <rect x="416.67" y="750" width="20.83" height="20.83"/> <rect x="395.83" y="979.17" width="20.83" height="20.83"/> <rect x="395.83" y="937.5" width="20.83" height="20.83"/> <rect x="395.83" y="895.83" width="20.83" height="20.83"/> <rect x="395.83" y="854.17" width="20.83" height="20.83"/> <rect x="395.83" y="812.5" width="20.83" height="20.83"/> <rect x="395.83" y="770.83" width="20.83" height="20.83"/> <rect x="375" y="958.33" width="20.83" height="20.83"/> <rect x="375" y="916.67" width="20.83" height="20.83"/> <rect x="375" y="875" width="20.83" height="20.83"/> <rect x="375" y="833.33" width="20.83" height="20.83"/> <rect x="375" y="791.67" width="20.83" height="20.83"/> <rect x="375" y="750" width="20.83" height="20.83"/> <rect x="354.17" y="979.17" width="20.83" height="20.83"/> <rect x="354.17" y="937.5" width="20.83" height="20.83"/> <rect x="354.17" y="895.83" width="20.83" height="20.83"/> <rect x="354.17" y="854.17" width="20.83" height="20.83"/> <rect x="354.17" y="812.5" width="20.83" height="20.83"/> <rect x="354.17" y="770.83" width="20.83" height="20.83"/> <rect x="333.33" y="916.67" width="20.83" height="20.83"/> <rect x="333.33" y="875" width="20.83" height="20.83"/> <rect x="333.33" y="833.33" width="20.83" height="20.83"/> <rect x="333.33" y="791.67" width="20.83" height="20.83"/> <rect x="333.33" y="750" width="20.83" height="20.83"/> <rect x="312.5" y="979.17" width="20.83" height="20.83"/> <rect x="312.5" y="895.83" width="20.83" height="20.83"/> <rect x="312.5" y="854.17" width="20.83" height="20.83"/> <rect x="312.5" y="812.5" width="20.83" height="20.83"/> <rect x="312.5" y="770.83" width="20.83" height="20.83"/> <rect x="291.67" y="875" width="20.83" height="20.83"/> <rect x="291.67" y="833.33" width="20.83" height="20.83"/> <rect x="291.67" y="791.67" width="20.83" height="20.83"/> <rect x="291.67" y="750" width="20.83" height="20.83"/> <rect x="270.83" y="979.17" width="20.83" height="20.83"/> <rect x="270.83" y="937.5" width="20.83" height="20.83"/> <rect x="270.83" y="895.83" width="20.83" height="20.83"/> <rect x="270.83" y="854.17" width="20.83" height="20.83"/> <rect x="270.83" y="812.5" width="20.83" height="20.83"/> <rect x="270.83" y="770.83" width="20.83" height="20.83"/> <rect x="250" y="958.33" width="20.83" height="20.83"/> <rect x="250" y="916.67" width="20.83" height="20.83"/> <rect x="250" y="833.33" width="20.83" height="20.83"/> <rect x="250" y="791.67" width="20.83" height="20.83"/> <rect x="250" y="750" width="20.83" height="20.83"/> <rect x="83.33" y="208.33" width="20.83" height="20.83"/> <rect x="41.67" y="208.33" width="20.83" height="20.83"/> <rect x="62.5" y="187.5" width="20.83" height="20.83"/> <rect x="41.67" y="166.67" width="20.83" height="20.83"/> <rect y="125" width="20.83" height="20.83"/> <rect x="229.17" y="229.17" width="20.83" height="20.83"/> <rect x="229.17" y="187.5" width="20.83" height="20.83"/> <rect x="229.17" y="145.83" width="20.83" height="20.83"/> <rect x="229.17" y="104.17" width="20.83" height="20.83"/> <rect x="229.17" y="62.5" width="20.83" height="20.83"/> <rect x="229.17" y="20.83" width="20.83" height="20.83"/> <rect x="208.33" y="208.33" width="20.83" height="20.83"/> <rect x="208.33" y="166.67" width="20.83" height="20.83"/> <rect x="208.33" y="125" width="20.83" height="20.83"/> <rect x="208.33" y="83.33" width="20.83" height="20.83"/> <rect x="208.33" y="41.67" width="20.83" height="20.83"/> <rect x="208.33" width="20.83" height="20.83"/> <rect x="187.5" y="229.17" width="20.83" height="20.83"/> <rect x="187.5" y="187.5" width="20.83" height="20.83"/> <rect x="187.5" y="145.83" width="20.83" height="20.83"/> <rect x="187.5" y="104.17" width="20.83" height="20.83"/> <rect x="187.5" y="62.5" width="20.83" height="20.83"/> <rect x="187.5" y="20.83" width="20.83" height="20.83"/> <rect x="166.67" y="208.33" width="20.83" height="20.83"/> <rect x="166.67" y="166.67" width="20.83" height="20.83"/> <rect x="166.67" y="125" width="20.83" height="20.83"/> <rect x="166.67" y="83.33" width="20.83" height="20.83"/> <rect x="166.67" y="41.67" width="20.83" height="20.83"/> <rect x="166.67" width="20.83" height="20.83"/> <rect x="145.83" y="229.17" width="20.83" height="20.83"/> <rect x="145.83" y="187.5" width="20.83" height="20.83"/> <rect x="145.83" y="145.83" width="20.83" height="20.83"/> <rect x="145.83" y="104.17" width="20.83" height="20.83"/> <rect x="145.83" y="62.5" width="20.83" height="20.83"/> <rect x="145.83" y="20.83" width="20.83" height="20.83"/> <rect x="125" y="208.33" width="20.83" height="20.83"/> <rect x="125" y="166.67" width="20.83" height="20.83"/> <rect x="125" y="125" width="20.83" height="20.83"/> <rect x="125" y="83.33" width="20.83" height="20.83"/> <rect x="125" y="41.67" width="20.83" height="20.83"/> <rect x="125" width="20.83" height="20.83"/> <rect x="104.17" y="229.17" width="20.83" height="20.83"/> <rect x="104.17" y="187.5" width="20.83" height="20.83"/> <rect x="104.17" y="145.83" width="20.83" height="20.83"/> <rect x="104.17" y="104.17" width="20.83" height="20.83"/> <rect x="104.17" y="62.5" width="20.83" height="20.83"/> <rect x="104.17" y="20.83" width="20.83" height="20.83"/> <rect x="83.33" y="166.67" width="20.83" height="20.83"/> <rect x="83.33" y="125" width="20.83" height="20.83"/> <rect x="83.33" y="83.33" width="20.83" height="20.83"/> <rect x="83.33" y="41.67" width="20.83" height="20.83"/> <rect x="83.33" width="20.83" height="20.83"/> <rect x="62.5" y="229.17" width="20.83" height="20.83"/> <rect x="62.5" y="145.83" width="20.83" height="20.83"/> <rect x="62.5" y="104.17" width="20.83" height="20.83"/> <rect x="62.5" y="62.5" width="20.83" height="20.83"/> <rect x="62.5" y="20.83" width="20.83" height="20.83"/> <rect x="41.67" y="125" width="20.83" height="20.83"/> <rect x="41.67" y="83.33" width="20.83" height="20.83"/> <rect x="41.67" y="41.67" width="20.83" height="20.83"/> <rect x="41.67" width="20.83" height="20.83"/> <rect x="20.83" y="229.17" width="20.83" height="20.83"/> <rect x="20.83" y="187.5" width="20.83" height="20.83"/> <rect x="20.83" y="145.83" width="20.83" height="20.83"/> <rect x="20.83" y="104.17" width="20.83" height="20.83"/> <rect x="20.83" y="62.5" width="20.83" height="20.83"/> <rect x="20.83" y="20.83" width="20.83" height="20.83"/> <rect y="208.33" width="20.83" height="20.83"/> <rect y="166.67" width="20.83" height="20.83"/> <rect y="83.33" width="20.83" height="20.83"/> <rect y="41.67" width="20.83" height="20.83"/> <rect width="20.83" height="20.83"/> <rect x="333.33" y="208.33" width="20.83" height="20.83"/> <rect x="291.67" y="208.33" width="20.83" height="20.83"/> <rect x="312.5" y="187.5" width="20.83" height="20.83"/> <rect x="291.67" y="166.67" width="20.83" height="20.83"/> <rect x="250" y="125" width="20.83" height="20.83"/> <rect x="479.17" y="229.17" width="20.83" height="20.83"/> <rect x="479.17" y="187.5" width="20.83" height="20.83"/> <rect x="479.17" y="145.83" width="20.83" height="20.83"/> <rect x="479.17" y="104.17" width="20.83" height="20.83"/> <rect x="479.17" y="62.5" width="20.83" height="20.83"/> <rect x="479.17" y="20.83" width="20.83" height="20.83"/> <rect x="458.33" y="208.33" width="20.83" height="20.83"/> <rect x="458.33" y="166.67" width="20.83" height="20.83"/> <rect x="458.33" y="125" width="20.83" height="20.83"/> <rect x="458.33" y="83.33" width="20.83" height="20.83"/> <rect x="458.33" y="41.67" width="20.83" height="20.83"/> <rect x="458.33" width="20.83" height="20.83"/> <rect x="437.5" y="229.17" width="20.83" height="20.83"/> <rect x="437.5" y="187.5" width="20.83" height="20.83"/> <rect x="437.5" y="145.83" width="20.83" height="20.83"/> <rect x="437.5" y="104.17" width="20.83" height="20.83"/> <rect x="437.5" y="62.5" width="20.83" height="20.83"/> <rect x="437.5" y="20.83" width="20.83" height="20.83"/> <rect x="416.67" y="208.33" width="20.83" height="20.83"/> <rect x="416.67" y="166.67" width="20.83" height="20.83"/> <rect x="416.67" y="125" width="20.83" height="20.83"/> <rect x="416.67" y="83.33" width="20.83" height="20.83"/> <rect x="416.67" y="41.67" width="20.83" height="20.83"/> <rect x="416.67" width="20.83" height="20.83"/> <rect x="395.83" y="229.17" width="20.83" height="20.83"/> <rect x="395.83" y="187.5" width="20.83" height="20.83"/> <rect x="395.83" y="145.83" width="20.83" height="20.83"/> <rect x="395.83" y="104.17" width="20.83" height="20.83"/> <rect x="395.83" y="62.5" width="20.83" height="20.83"/> <rect x="395.83" y="20.83" width="20.83" height="20.83"/> <rect x="375" y="208.33" width="20.83" height="20.83"/> <rect x="375" y="166.67" width="20.83" height="20.83"/> <rect x="375" y="125" width="20.83" height="20.83"/> <rect x="375" y="83.33" width="20.83" height="20.83"/> <rect x="375" y="41.67" width="20.83" height="20.83"/> <rect x="375" width="20.83" height="20.83"/> <rect x="354.17" y="229.17" width="20.83" height="20.83"/> <rect x="354.17" y="187.5" width="20.83" height="20.83"/> <rect x="354.17" y="145.83" width="20.83" height="20.83"/> <rect x="354.17" y="104.17" width="20.83" height="20.83"/> <rect x="354.17" y="62.5" width="20.83" height="20.83"/> <rect x="354.17" y="20.83" width="20.83" height="20.83"/> <rect x="333.33" y="166.67" width="20.83" height="20.83"/> <rect x="333.33" y="125" width="20.83" height="20.83"/> <rect x="333.33" y="83.33" width="20.83" height="20.83"/> <rect x="333.33" y="41.67" width="20.83" height="20.83"/> <rect x="333.33" width="20.83" height="20.83"/> <rect x="312.5" y="229.17" width="20.83" height="20.83"/> <rect x="312.5" y="145.83" width="20.83" height="20.83"/> <rect x="312.5" y="104.17" width="20.83" height="20.83"/> <rect x="312.5" y="62.5" width="20.83" height="20.83"/> <rect x="312.5" y="20.83" width="20.83" height="20.83"/> <rect x="291.67" y="125" width="20.83" height="20.83"/> <rect x="291.67" y="83.33" width="20.83" height="20.83"/> <rect x="291.67" y="41.67" width="20.83" height="20.83"/> <rect x="291.67" width="20.83" height="20.83"/> <rect x="270.83" y="229.17" width="20.83" height="20.83"/> <rect x="270.83" y="187.5" width="20.83" height="20.83"/> <rect x="270.83" y="145.83" width="20.83" height="20.83"/> <rect x="270.83" y="104.17" width="20.83" height="20.83"/> <rect x="270.83" y="62.5" width="20.83" height="20.83"/> <rect x="270.83" y="20.83" width="20.83" height="20.83"/> <rect x="250" y="208.33" width="20.83" height="20.83"/> <rect x="250" y="166.67" width="20.83" height="20.83"/> <rect x="250" y="83.33" width="20.83" height="20.83"/> <rect x="250" y="41.67" width="20.83" height="20.83"/> <rect x="250" width="20.83" height="20.83"/> <rect x="83.33" y="458.33" width="20.83" height="20.83"/> <rect x="41.67" y="458.33" width="20.83" height="20.83"/> <rect x="62.5" y="437.5" width="20.83" height="20.83"/> <rect x="41.67" y="416.67" width="20.83" height="20.83"/> <rect y="375" width="20.83" height="20.83"/> <rect x="229.17" y="479.17" width="20.83" height="20.83"/> <rect x="229.17" y="437.5" width="20.83" height="20.83"/> <rect x="229.17" y="395.83" width="20.83" height="20.83"/> <rect x="229.17" y="354.17" width="20.83" height="20.83"/> <rect x="229.17" y="312.5" width="20.83" height="20.83"/> <rect x="229.17" y="270.83" width="20.83" height="20.83"/> <rect x="208.33" y="458.33" width="20.83" height="20.83"/> <rect x="208.33" y="416.67" width="20.83" height="20.83"/> <rect x="208.33" y="375" width="20.83" height="20.83"/> <rect x="208.33" y="333.33" width="20.83" height="20.83"/> <rect x="208.33" y="291.67" width="20.83" height="20.83"/> <rect x="208.33" y="250" width="20.83" height="20.83"/> <rect x="187.5" y="479.17" width="20.83" height="20.83"/> <rect x="187.5" y="437.5" width="20.83" height="20.83"/> <rect x="187.5" y="395.83" width="20.83" height="20.83"/> <rect x="187.5" y="354.17" width="20.83" height="20.83"/> <rect x="187.5" y="312.5" width="20.83" height="20.83"/> <rect x="187.5" y="270.83" width="20.83" height="20.83"/> <rect x="166.67" y="458.33" width="20.83" height="20.83"/> <rect x="166.67" y="416.67" width="20.83" height="20.83"/> <rect x="166.67" y="375" width="20.83" height="20.83"/> <rect x="166.67" y="333.33" width="20.83" height="20.83"/> <rect x="166.67" y="291.67" width="20.83" height="20.83"/> <rect x="166.67" y="250" width="20.83" height="20.83"/> <rect x="145.83" y="479.17" width="20.83" height="20.83"/> <rect x="145.83" y="437.5" width="20.83" height="20.83"/> <rect x="145.83" y="395.83" width="20.83" height="20.83"/> <rect x="145.83" y="354.17" width="20.83" height="20.83"/> <rect x="145.83" y="312.5" width="20.83" height="20.83"/> <rect x="145.83" y="270.83" width="20.83" height="20.83"/> <rect x="125" y="458.33" width="20.83" height="20.83"/> <rect x="125" y="416.67" width="20.83" height="20.83"/> <rect x="125" y="375" width="20.83" height="20.83"/> <rect x="125" y="333.33" width="20.83" height="20.83"/> <rect x="125" y="291.67" width="20.83" height="20.83"/> <rect x="125" y="250" width="20.83" height="20.83"/> <rect x="104.17" y="479.17" width="20.83" height="20.83"/> <rect x="104.17" y="437.5" width="20.83" height="20.83"/> <rect x="104.17" y="395.83" width="20.83" height="20.83"/> <rect x="104.17" y="354.17" width="20.83" height="20.83"/> <rect x="104.17" y="312.5" width="20.83" height="20.83"/> <rect x="104.17" y="270.83" width="20.83" height="20.83"/> <rect x="83.33" y="416.67" width="20.83" height="20.83"/> <rect x="83.33" y="375" width="20.83" height="20.83"/> <rect x="83.33" y="333.33" width="20.83" height="20.83"/> <rect x="83.33" y="291.67" width="20.83" height="20.83"/> <rect x="83.33" y="250" width="20.83" height="20.83"/> <rect x="62.5" y="479.17" width="20.83" height="20.83"/> <rect x="62.5" y="395.83" width="20.83" height="20.83"/> <rect x="62.5" y="354.17" width="20.83" height="20.83"/> <rect x="62.5" y="312.5" width="20.83" height="20.83"/> <rect x="62.5" y="270.83" width="20.83" height="20.83"/> <rect x="41.67" y="375" width="20.83" height="20.83"/> <rect x="41.67" y="333.33" width="20.83" height="20.83"/> <rect x="41.67" y="291.67" width="20.83" height="20.83"/> <rect x="41.67" y="250" width="20.83" height="20.83"/> <rect x="20.83" y="479.17" width="20.83" height="20.83"/> <rect x="20.83" y="437.5" width="20.83" height="20.83"/> <rect x="20.83" y="395.83" width="20.83" height="20.83"/> <rect x="20.83" y="354.17" width="20.83" height="20.83"/> <rect x="20.83" y="312.5" width="20.83" height="20.83"/> <rect x="20.83" y="270.83" width="20.83" height="20.83"/> <rect y="458.33" width="20.83" height="20.83"/> <rect y="416.67" width="20.83" height="20.83"/> <rect y="333.33" width="20.83" height="20.83"/> <rect y="291.67" width="20.83" height="20.83"/> <rect y="250" width="20.83" height="20.83"/> </g> </g> </svg>